PathFileType	4	(X/Y/Z)	SUBJ26_2_walk_RCNL2025.trc
DataRate	CameraRate	NumFrames	NumMarkers	Units	OrigDataRate	OrigDataStartFrame	OrigNumFrames
100	100	8	25	mm	100	214	341
Frame#	Time	R_Shoulder			L_Shoulder			C7			J_Notch			R_Elbow			L_Elbow			R_Wrist			L_Wrist			R_Asis			L_Asis			Sacral			Thoracic			Sternum			R_Thigh_Lateral			R_Knee_Lateral			R_Shank_Lateral			R_Ankle_Lateral			R_Heel			R_Toe			L_Thigh_Lateral			L_Knee_Lateral			L_Shank_Lateral			L_Ankle_Lateral			L_Heel			L_Toe		
		X1	Y1	Z1	X2	Y2	Z2	X3	Y3	Z3	X4	Y4	Z4	X5	Y5	Z5	X6	Y6	Z6	X7	Y7	Z7	X8	Y8	Z8	X9	Y9	Z9	X10	Y10	Z10	X11	Y11	Z11	X12	Y12	Z12	X13	Y13	Z13	X14	Y14	Z14	X15	Y15	Z15	X16	Y16	Z16	X17	Y17	Z17	X18	Y18	Z18	X19	Y19	Z19	X20	Y20	Z20	X21	Y21	Z21	X22	Y22	Z22	X23	Y23	Z23	X24	Y24	Z24	X25	Y25	Z25
214	2.13000000	1139.470215	1291.164062	-38.291241	1130.078979	1292.482910	-371.970428	1051.939209	1355.239746	-196.032791	1197.793213	1257.442505	-213.111816	1032.200562	978.857483	52.032227	1138.671265	978.190308	-483.508148	1099.578186	734.572113	54.165941	1298.517212	789.899719	-492.460953	1188.072754	889.043518	-83.536980	1135.164307	901.683594	-381.883453	962.664246	897.270813	-187.555786	978.564453	1010.845581	-190.877975	1243.334351	1002.494507	-204.156830	1200.323120	553.410522	-30.644203	1296.052002	440.111786	-84.993729	1323.000854	294.106842	-41.921539	1403.976074	62.148190	-112.939758	1360.616455	34.692436	-176.813934	1523.379272	86.194939	-131.098923	1011.851135	599.572937	-403.666077	965.315186	441.126648	-316.478607	908.275513	264.530182	-376.543030	850.994690	66.597893	-279.883118	784.255310	58.649948	-231.286392	964.353455	38.056931	-236.707138
215	2.14000000	1152.968506	1288.800903	-37.975281	1143.125244	1290.323486	-371.386566	1064.971680	1353.020508	-195.449600	1210.960571	1255.203491	-212.807220	1045.221191	976.749084	52.772648	1155.671265	976.897949	-483.109497	1111.237488	732.096161	55.423890	1319.227539	791.647003	-491.381836	1202.137085	887.170349	-83.749176	1147.934082	900.025391	-382.134583	976.609619	894.915222	-186.685593	992.272888	1008.495667	-189.938690	1256.800171	1000.462646	-203.895020	1212.030151	549.209900	-32.315834	1310.057373	437.731750	-87.378746	1338.082031	291.832092	-44.949837	1424.729736	61.851395	-116.087044	1382.233398	34.076618	-180.454590	1544.101807	87.174576	-133.308563	1021.322998	599.052063	-404.054535	973.668152	440.980438	-316.787628	912.810486	265.752136	-377.076569	852.028625	68.600754	-280.370575	785.129028	61.959003	-231.760727	964.756409	38.179245	-236.899963
216	2.15000000	1166.576050	1286.536255	-37.556229	1156.176758	1288.395874	-370.754791	1078.087769	1350.869995	-194.751801	1224.245728	1253.126465	-212.426636	1058.625610	974.654358	53.574314	1172.166870	975.700012	-482.616760	1123.241516	729.631989	56.782188	1339.348511	793.512878	-490.163742	1216.484131	885.348450	-84.001526	1160.998169	898.376709	-382.375122	990.819275	892.654846	-185.755371	1006.261536	1006.176331	-188.997223	1270.441406	998.580566	-203.690323	1224.218506	545.399231	-34.078785	1324.010864	435.340393	-89.777977	1352.261597	289.289612	-48.126217	1442.211304	60.913036	-119.641548	1400.288574	33.244888	-184.401550	1561.625488	86.722710	-136.086731	1031.674683	598.385193	-404.487244	982.762878	440.719574	-317.143188	917.963257	267.042175	-377.716736	853.266968	70.853020	-281.034882	786.179993	65.658333	-232.451584	965.240051	38.361130	-237.125916
217	2.16000000	1180.295654	1284.392090	-37.017082	1169.249390	1286.727905	-370.067017	1091.300781	1348.817017	-193.916519	1237.663330	1251.253906	-211.959747	1072.398193	972.594666	54.428280	1188.124634	974.603516	-482.043732	1135.594543	727.208832	58.233898	1358.833435	795.495270	-488.820679	1231.127319	883.583740	-84.297752	1174.396851	896.743042	-382.595367	1005.285767	890.544861	-184.785675	1020.528748	1003.926819	-188.087326	1284.292969	996.873413	-203.546875	1237.099487	542.264160	-35.780651	1337.824463	432.954987	-92.150383	1365.675781	286.549133	-51.417774	1456.667114	59.351337	-123.475700	1414.939209	32.246971	-188.461227	1576.202881	84.756363	-139.440887	1042.838257	597.595154	-404.961823	992.547546	440.368469	-317.533630	923.699585	268.421631	-378.444550	854.735168	73.382942	-281.846313	787.451416	69.788757	-233.322739	965.803650	38.590973	-237.369888
218	2.17000000	1194.135010	1282.388306	-36.346802	1182.365723	1285.343506	-369.317810	1104.625244	1346.901489	-192.924973	1251.226318	1249.627319	-211.399475	1086.518188	970.592224	55.324459	1203.529419	973.620789	-481.401855	1148.289795	724.853485	59.764086	1377.633545	797.581055	-487.369934	1246.060059	881.890808	-84.626892	1188.158936	895.128723	-382.778229	1019.977478	888.641724	-183.806870	1035.053833	1001.797119	-187.247482	1298.393921	995.372986	-203.460709	1250.750366	539.981628	-37.290997	1351.428467	430.610016	-94.443245	1378.441040	283.748260	-54.773022	1468.425049	57.323006	-127.392128	1426.441406	31.229515	-192.378052	1588.154297	81.336510	-143.302292	1054.737671	596.711304	-405.461823	1002.977844	439.952362	-317.948090	929.984192	269.910706	-379.242645	856.468445	76.213158	-282.777954	789.003418	74.391655	-234.340729	966.442139	38.845798	-237.618576
219	2.18000000	1208.103027	1280.547363	-35.541283	1195.556152	1284.267456	-368.504883	1118.079590	1345.178345	-191.767365	1264.946777	1248.288086	-210.741379	1100.962769	968.675354	56.251507	1218.385010	972.772888	-480.699554	1161.321594	722.598419	61.355152	1395.697876	799.744751	-485.832703	1261.245117	880.299988	-84.961891	1202.298706	893.540283	-382.898560	1034.835815	887.003540	-182.859253	1049.794922	999.852295	-186.522781	1312.778931	994.119446	-203.419373	1265.101562	538.580322	-38.565182	1364.822510	428.398743	-96.590553	1390.715576	281.102875	-58.094986	1477.869629	55.089661	-131.145020	1435.148193	30.387579	-195.873428	1597.841064	76.673340	-147.514816	1067.295776	595.766907	-405.957977	1014.023682	439.497925	-318.378876	936.793152	271.527039	-380.099640	858.513916	79.365204	-283.810455	790.918152	79.510300	-235.475433	967.149536	39.094841	-237.861343
220	2.19000000	1222.207397	1278.897583	-34.605087	1208.860596	1283.527832	-367.629089	1131.687744	1343.717896	-190.445343	1278.834473	1247.276978	-209.982391	1115.712769	966.883667	57.195606	1232.712769	972.093201	-479.941925	1174.695068	720.489197	62.990934	1412.975159	801.949127	-484.233917	1276.607788	878.863647	-85.260010	1216.811401	891.991821	-382.923615	1049.784058	885.688904	-181.990738	1064.687256	998.174316	-185.967865	1327.468384	993.160400	-203.402328	1279.975586	537.972961	-39.640747	1378.109375	426.494720	-98.514091	1402.738525	278.886993	-61.225651	1485.406738	52.949547	-134.482407	1441.494263	29.892303	-198.704483	1605.627319	71.119415	-151.842575	1080.440552	594.797180	-406.413391	1025.677368	439.030548	-318.824005	944.126770	273.283783	-381.011261	860.934387	82.863052	-284.933929	793.306458	85.190872	-236.700333	967.923706	39.305542	-238.092545
221	2.20000000	1236.452637	1277.477417	-33.553341	1222.327148	1283.156372	-366.693085	1145.475830	1342.599731	-188.974808	1292.893799	1246.631226	-209.119354	1130.754883	965.271484	58.139633	1246.548462	971.628784	-479.132385	1188.421936	718.585022	64.656273	1429.415771	804.147369	-482.599503	1292.042847	877.663513	-85.462051	1231.669312	890.508789	-382.813660	1064.745605	884.753052	-181.254089	1079.647583	996.855713	-185.644211	1342.455444	992.546448	-203.384583	1295.166748	538.039062	-40.566830	1391.492310	425.129578	-100.130829	1414.810181	277.367523	-63.951881	1491.414795	51.148930	-137.204346	1445.956543	29.824251	-200.727036	1611.831421	65.132515	-156.002899	1094.110840	593.836060	-406.793518	1037.961670	438.567383	-319.290131	952.021667	275.187469	-381.980743	863.811707	86.734207	-286.146698	796.310913	91.481369	-237.990326	968.771545	39.451153	-238.314560
